<svg xmlns="http://www.w3.org/2000/svg" xmlns:xlink="http://www.w3.org/1999/xlink" width="1080" zoomAndPan="magnify" viewBox="0 0 810 809.999993" height="1080" preserveAspectRatio="xMidYMid meet" version="1.0"><defs><g/><clipPath id="c821893ee5"><path d="M 47.417969 64.207031 L 763 64.207031 L 763 745.792969 L 47.417969 745.792969 Z M 47.417969 64.207031 " clip-rule="nonzero"/></clipPath><clipPath id="d7cdeedb81"><path d="M 405 64.207031 C 207.511719 64.207031 47.417969 216.785156 47.417969 405 C 47.417969 593.214844 207.511719 745.792969 405 745.792969 C 602.488281 745.792969 762.582031 593.214844 762.582031 405 C 762.582031 216.785156 602.488281 64.207031 405 64.207031 Z M 405 64.207031 " clip-rule="nonzero"/></clipPath></defs><g clip-path="url(#c821893ee5)"><g clip-path="url(#d7cdeedb81)"><path fill="#fffae5" d="M 47.417969 64.207031 L 763.613281 64.207031 L 763.613281 745.792969 L 47.417969 745.792969 Z M 47.417969 64.207031 " fill-opacity="1" fill-rule="nonzero"/></g></g><g fill="#a28f8f" fill-opacity="0.4"><g transform="translate(99.649359, 364.849353)"><g><path d="M 112.070312 -18.746094 C 101.21875 -33.542969 88.789062 -46.761719 74.582031 -58.207031 C 85.238281 -65.703125 94.117188 -76.160156 97.863281 -87.40625 C 105.363281 -109.902344 85.238281 -132 62.347656 -131.011719 C 38.082031 -129.828125 22.097656 -107.335938 17.757812 -85.433594 C 12.035156 -57.023438 12.035156 -26.832031 9.867188 1.972656 C 8.285156 20.914062 37.882812 20.914062 39.460938 1.972656 C 40.644531 -13.613281 41.828125 -29.203125 43.210938 -44.789062 C 59.980469 -33.738281 74.582031 -20.125 86.617188 -3.75 C 97.667969 11.445312 123.515625 -3.355469 112.070312 -18.746094 Z M 69.847656 -97.667969 C 70.636719 -94.511719 61.757812 -86.617188 59.390625 -84.449219 C 55.246094 -80.699219 51.300781 -77.9375 46.171875 -77.34375 C 46.761719 -80.699219 47.550781 -84.054688 48.933594 -87.210938 C 50.3125 -90.960938 67.085938 -111.085938 69.847656 -97.667969 Z M 69.847656 -97.667969 "/></g></g></g><g fill="#a28f8f" fill-opacity="0.4"><g transform="translate(201.850878, 364.849353)"><g><path d="M 82.277344 -41.632812 C 68.664062 -42.027344 55.050781 -41.632812 41.632812 -40.25 C 42.617188 -47.75 43.800781 -55.246094 44.789062 -62.941406 C 51.496094 -62.941406 58.207031 -62.546875 64.914062 -61.953125 C 73.003906 -61.164062 79.710938 -69.253906 79.710938 -76.753906 C 79.710938 -85.433594 73.003906 -90.761719 64.914062 -91.550781 C 59.785156 -91.945312 54.65625 -92.339844 49.328125 -92.339844 C 50.511719 -100.035156 51.890625 -107.730469 53.074219 -115.226562 C 63.140625 -115.226562 73.003906 -115.03125 83.066406 -114.242188 C 102.007812 -113.058594 102.007812 -142.652344 83.066406 -143.839844 C 68.859375 -144.824219 54.457031 -145.023438 40.25 -144.628906 C 34.726562 -144.429688 30.78125 -141.667969 28.414062 -138.117188 C 27.425781 -136.539062 26.636719 -134.5625 26.242188 -132.195312 C 19.730469 -96.089844 14.402344 -59.785156 9.867188 -23.28125 C 8.484375 -12.824219 20.324219 -7.695312 28.609375 -9.078125 C 46.367188 -11.839844 64.324219 -12.628906 82.277344 -12.035156 C 101.21875 -11.246094 101.21875 -40.84375 82.277344 -41.632812 Z M 82.277344 -41.632812 "/></g></g></g><g fill="#a28f8f" fill-opacity="0.4"><g transform="translate(286.295143, 364.849353)"><g><path d="M 86.816406 -119.371094 C 83.660156 -98.0625 79.910156 -76.949219 75.964844 -55.839844 L 58.402344 -95.890625 C 53.273438 -108.125 34.527344 -103.785156 31.371094 -92.339844 C 23.085938 -61.558594 15.980469 -30.582031 10.0625 0.789062 C 6.511719 19.335938 35.121094 27.425781 38.671875 8.679688 C 41.828125 -8.679688 45.578125 -25.847656 49.523438 -43.011719 C 55.839844 -28.609375 61.953125 -14.207031 68.269531 0 C 73.398438 11.839844 92.734375 8.285156 95.300781 -3.355469 C 103.191406 -39.265625 109.902344 -75.175781 115.226562 -111.480469 C 117.992188 -130.222656 89.378906 -138.117188 86.816406 -119.371094 Z M 86.816406 -119.371094 "/></g></g></g><g fill="#a28f8f" fill-opacity="0.4"><g transform="translate(389.088559, 364.849353)"><g><path d="M 89.777344 -135.550781 C 67.875 -138.3125 45.972656 -138.707031 23.875 -136.339844 C 5.128906 -134.5625 4.933594 -104.96875 23.875 -106.941406 C 29.792969 -107.53125 35.515625 -107.730469 41.238281 -108.125 C 39.460938 -79.121094 37.882812 -50.3125 36.109375 -21.507812 C 34.921875 -2.367188 64.519531 -2.566406 65.703125 -21.507812 C 67.480469 -50.117188 69.058594 -78.921875 70.832031 -107.730469 C 77.148438 -107.335938 83.460938 -106.742188 89.777344 -105.953125 C 108.71875 -103.390625 108.519531 -132.984375 89.777344 -135.550781 Z M 89.777344 -135.550781 "/></g></g></g><g fill="#a28f8f" fill-opacity="0.4"><g transform="translate(480.24113, 364.849353)"><g/></g></g><g fill="#a28f8f" fill-opacity="0.4"><g transform="translate(517.530051, 364.849353)"><g><path d="M 102.007812 -86.421875 C 101.417969 -103.585938 101.023438 -148.574219 71.820312 -136.144531 C 52.878906 -128.054688 38.476562 -103.390625 30.386719 -85.632812 C 19.730469 -61.558594 14.601562 -36.109375 10.0625 -10.457031 C 6.707031 8.285156 35.121094 16.179688 38.476562 -2.566406 C 40.25 -12.429688 42.027344 -22.492188 44.195312 -32.359375 L 73.792969 -31.175781 C 74.1875 -23.28125 74.386719 -15.390625 74.582031 -7.695312 C 74.976562 11.445312 104.574219 11.445312 103.980469 -7.695312 C 103.390625 -33.9375 102.996094 -60.179688 102.007812 -86.421875 Z M 53.667969 -64.914062 C 57.023438 -73.597656 61.363281 -82.277344 66.492188 -89.972656 C 68.269531 -92.734375 70.242188 -95.300781 72.214844 -97.667969 C 72.414062 -93.722656 72.214844 -89.777344 72.414062 -86.421875 C 72.808594 -77.9375 73.003906 -69.453125 73.203125 -60.769531 C 66.296875 -60.96875 59.390625 -61.363281 52.484375 -61.558594 C 52.878906 -62.742188 53.273438 -63.730469 53.667969 -64.914062 Z M 53.667969 -64.914062 "/></g></g></g><g fill="#de89a1" fill-opacity="1"><g transform="translate(92.164228, 359.208897)"><g><path d="M 112.070312 -18.746094 C 101.21875 -33.542969 88.789062 -46.761719 74.582031 -58.207031 C 85.238281 -65.703125 94.117188 -76.160156 97.863281 -87.40625 C 105.363281 -109.902344 85.238281 -132 62.347656 -131.011719 C 38.082031 -129.828125 22.097656 -107.335938 17.757812 -85.433594 C 12.035156 -57.023438 12.035156 -26.832031 9.867188 1.972656 C 8.285156 20.914062 37.882812 20.914062 39.460938 1.972656 C 40.644531 -13.613281 41.828125 -29.203125 43.210938 -44.789062 C 59.980469 -33.738281 74.582031 -20.125 86.617188 -3.75 C 97.667969 11.445312 123.515625 -3.355469 112.070312 -18.746094 Z M 69.847656 -97.667969 C 70.636719 -94.511719 61.757812 -86.617188 59.390625 -84.449219 C 55.246094 -80.699219 51.300781 -77.9375 46.171875 -77.34375 C 46.761719 -80.699219 47.550781 -84.054688 48.933594 -87.210938 C 50.3125 -90.960938 67.085938 -111.085938 69.847656 -97.667969 Z M 69.847656 -97.667969 "/></g></g></g><g fill="#de89a1" fill-opacity="1"><g transform="translate(194.365746, 359.208897)"><g><path d="M 82.277344 -41.632812 C 68.664062 -42.027344 55.050781 -41.632812 41.632812 -40.25 C 42.617188 -47.75 43.800781 -55.246094 44.789062 -62.941406 C 51.496094 -62.941406 58.207031 -62.546875 64.914062 -61.953125 C 73.003906 -61.164062 79.710938 -69.253906 79.710938 -76.753906 C 79.710938 -85.433594 73.003906 -90.761719 64.914062 -91.550781 C 59.785156 -91.945312 54.65625 -92.339844 49.328125 -92.339844 C 50.511719 -100.035156 51.890625 -107.730469 53.074219 -115.226562 C 63.140625 -115.226562 73.003906 -115.03125 83.066406 -114.242188 C 102.007812 -113.058594 102.007812 -142.652344 83.066406 -143.839844 C 68.859375 -144.824219 54.457031 -145.023438 40.25 -144.628906 C 34.726562 -144.429688 30.78125 -141.667969 28.414062 -138.117188 C 27.425781 -136.539062 26.636719 -134.5625 26.242188 -132.195312 C 19.730469 -96.089844 14.402344 -59.785156 9.867188 -23.28125 C 8.484375 -12.824219 20.324219 -7.695312 28.609375 -9.078125 C 46.367188 -11.839844 64.324219 -12.628906 82.277344 -12.035156 C 101.21875 -11.246094 101.21875 -40.84375 82.277344 -41.632812 Z M 82.277344 -41.632812 "/></g></g></g><g fill="#de89a1" fill-opacity="1"><g transform="translate(278.810011, 359.208897)"><g><path d="M 86.816406 -119.371094 C 83.660156 -98.0625 79.910156 -76.949219 75.964844 -55.839844 L 58.402344 -95.890625 C 53.273438 -108.125 34.527344 -103.785156 31.371094 -92.339844 C 23.085938 -61.558594 15.980469 -30.582031 10.0625 0.789062 C 6.511719 19.335938 35.121094 27.425781 38.671875 8.679688 C 41.828125 -8.679688 45.578125 -25.847656 49.523438 -43.011719 C 55.839844 -28.609375 61.953125 -14.207031 68.269531 0 C 73.398438 11.839844 92.734375 8.285156 95.300781 -3.355469 C 103.191406 -39.265625 109.902344 -75.175781 115.226562 -111.480469 C 117.992188 -130.222656 89.378906 -138.117188 86.816406 -119.371094 Z M 86.816406 -119.371094 "/></g></g></g><g fill="#de89a1" fill-opacity="1"><g transform="translate(381.603427, 359.208897)"><g><path d="M 89.777344 -135.550781 C 67.875 -138.3125 45.972656 -138.707031 23.875 -136.339844 C 5.128906 -134.5625 4.933594 -104.96875 23.875 -106.941406 C 29.792969 -107.53125 35.515625 -107.730469 41.238281 -108.125 C 39.460938 -79.121094 37.882812 -50.3125 36.109375 -21.507812 C 34.921875 -2.367188 64.519531 -2.566406 65.703125 -21.507812 C 67.480469 -50.117188 69.058594 -78.921875 70.832031 -107.730469 C 77.148438 -107.335938 83.460938 -106.742188 89.777344 -105.953125 C 108.71875 -103.390625 108.519531 -132.984375 89.777344 -135.550781 Z M 89.777344 -135.550781 "/></g></g></g><g fill="#de89a1" fill-opacity="1"><g transform="translate(472.755998, 359.208897)"><g/></g></g><g fill="#de89a1" fill-opacity="1"><g transform="translate(510.044919, 359.208897)"><g><path d="M 102.007812 -86.421875 C 101.417969 -103.585938 101.023438 -148.574219 71.820312 -136.144531 C 52.878906 -128.054688 38.476562 -103.390625 30.386719 -85.632812 C 19.730469 -61.558594 14.601562 -36.109375 10.0625 -10.457031 C 6.707031 8.285156 35.121094 16.179688 38.476562 -2.566406 C 40.25 -12.429688 42.027344 -22.492188 44.195312 -32.359375 L 73.792969 -31.175781 C 74.1875 -23.28125 74.386719 -15.390625 74.582031 -7.695312 C 74.976562 11.445312 104.574219 11.445312 103.980469 -7.695312 C 103.390625 -33.9375 102.996094 -60.179688 102.007812 -86.421875 Z M 53.667969 -64.914062 C 57.023438 -73.597656 61.363281 -82.277344 66.492188 -89.972656 C 68.269531 -92.734375 70.242188 -95.300781 72.214844 -97.667969 C 72.414062 -93.722656 72.214844 -89.777344 72.414062 -86.421875 C 72.808594 -77.9375 73.003906 -69.453125 73.203125 -60.769531 C 66.296875 -60.96875 59.390625 -61.363281 52.484375 -61.558594 C 52.878906 -62.742188 53.273438 -63.730469 53.667969 -64.914062 Z M 53.667969 -64.914062 "/></g></g></g><g fill="#a28f8f" fill-opacity="0.4"><g transform="translate(164.004394, 571.151576)"><g><path d="M 184.121094 -88.109375 C 183.875 -109.582031 181.160156 -135.746094 163.882812 -150.800781 C 144.878906 -167.585938 126.367188 -158.699219 112.050781 -141.667969 C 111.558594 -142.65625 110.816406 -143.644531 110.324219 -144.382812 C 96.996094 -164.871094 68.859375 -163.636719 52.570312 -147.59375 C 35.046875 -130.5625 26.160156 -102.179688 20.980469 -78.980469 C 15.550781 -53.558594 13.820312 -27.394531 12.339844 -1.726562 C 10.859375 22.214844 47.882812 21.964844 49.363281 -1.726562 C 51.089844 -32.824219 53.0625 -64.417969 63.675781 -93.789062 C 66.144531 -100.453125 68.859375 -106.867188 72.5625 -112.792969 C 73.796875 -114.765625 77.003906 -121.429688 79.964844 -122.171875 C 79.964844 -122.417969 80.214844 -122.417969 80.214844 -122.417969 C 80.214844 -122.171875 80.214844 -121.675781 80.707031 -121.183594 C 83.667969 -117.234375 82.679688 -105.632812 82.929688 -100.945312 C 83.175781 -92.058594 82.679688 -83.175781 81.695312 -74.042969 C 79.71875 -53.558594 114.765625 -48.621094 118.222656 -69.355469 C 120.195312 -82.433594 124.390625 -94.773438 131.550781 -106.128906 C 134.019531 -109.832031 139.449219 -114.273438 142.65625 -118.222656 C 143.148438 -114.273438 145.125 -110.324219 145.617188 -106.621094 C 151.542969 -73.796875 145.125 -37.515625 141.914062 -4.9375 C 139.449219 18.757812 176.46875 18.757812 178.9375 -4.9375 C 181.652344 -32.332031 184.613281 -60.222656 184.121094 -88.109375 Z M 184.121094 -88.109375 "/></g></g></g><g fill="#a28f8f" fill-opacity="0.4"><g transform="translate(342.435569, 571.151576)"><g><path d="M 127.601562 -107.855469 C 126.859375 -129.328125 126.367188 -185.601562 89.839844 -170.050781 C 66.144531 -159.933594 48.128906 -129.082031 38.007812 -106.621094 C 24.679688 -76.757812 18.265625 -44.917969 12.585938 -12.585938 C 8.390625 10.613281 43.933594 20.730469 48.128906 -2.714844 C 50.347656 -15.300781 52.570312 -27.644531 55.285156 -39.984375 L 92.308594 -38.75 C 92.800781 -28.875 93.046875 -19.003906 93.292969 -9.132812 C 93.789062 14.5625 130.808594 14.5625 130.070312 -9.132812 C 129.328125 -41.957031 128.835938 -75.03125 127.601562 -107.855469 Z M 65.652344 -76.757812 C 66.144531 -77.992188 66.640625 -79.472656 67.132812 -80.707031 C 71.328125 -91.8125 76.757812 -102.425781 83.175781 -112.296875 C 85.394531 -115.753906 87.863281 -118.714844 90.332031 -121.925781 C 90.578125 -116.988281 90.332031 -112.050781 90.578125 -107.855469 C 91.074219 -97.242188 91.320312 -86.382812 91.566406 -75.769531 C 82.929688 -76.015625 74.289062 -76.265625 65.652344 -76.757812 Z M 65.652344 -76.757812 "/></g></g></g><g fill="#a28f8f" fill-opacity="0.4"><g transform="translate(466.818564, 571.151576)"><g><path d="M 112.296875 -169.558594 C 84.902344 -173.015625 57.507812 -173.507812 29.863281 -170.546875 C 6.417969 -168.324219 6.171875 -131.304688 29.863281 -133.769531 C 37.269531 -134.511719 44.425781 -134.757812 51.582031 -135.25 C 49.363281 -98.972656 47.386719 -62.9375 45.167969 -26.902344 C 43.683594 -2.960938 80.707031 -3.207031 82.1875 -26.902344 C 84.410156 -62.691406 86.382812 -98.722656 88.605469 -134.757812 C 96.503906 -134.265625 104.402344 -133.523438 112.296875 -132.535156 C 135.992188 -129.328125 135.746094 -166.351562 112.296875 -169.558594 Z M 112.296875 -169.558594 "/></g></g></g><g fill="#a28f8f" fill-opacity="0.4"><g transform="translate(590.954781, 571.151576)"><g><path d="M 102.917969 -52.078125 C 85.890625 -52.570312 68.859375 -52.078125 52.078125 -50.347656 C 53.3125 -59.726562 54.792969 -69.105469 56.027344 -78.734375 C 64.417969 -78.734375 72.808594 -78.238281 81.199219 -77.5 C 91.320312 -76.511719 99.710938 -86.628906 99.710938 -96.007812 C 99.710938 -106.867188 91.320312 -113.53125 81.199219 -114.519531 C 74.785156 -115.011719 68.367188 -115.507812 61.703125 -115.507812 C 63.183594 -125.132812 64.910156 -134.757812 66.390625 -144.136719 C 78.980469 -144.136719 91.320312 -143.890625 103.90625 -142.902344 C 127.601562 -141.421875 127.601562 -178.445312 103.90625 -179.925781 C 86.136719 -181.160156 68.121094 -181.40625 50.347656 -180.910156 C 43.4375 -180.664062 38.503906 -177.210938 35.539062 -172.765625 C 34.304688 -170.792969 33.320312 -168.324219 32.824219 -165.363281 C 24.679688 -120.195312 18.015625 -74.785156 12.339844 -29.125 C 10.613281 -16.042969 25.421875 -9.625 35.789062 -11.351562 C 58 -14.808594 80.460938 -15.796875 102.917969 -15.054688 C 126.613281 -14.066406 126.613281 -51.089844 102.917969 -52.078125 Z M 102.917969 -52.078125 "/></g></g></g><g fill="#9888c6" fill-opacity="1"><g transform="translate(154.641245, 564.095951)"><g><path d="M 184.121094 -88.109375 C 183.875 -109.582031 181.160156 -135.746094 163.882812 -150.800781 C 144.878906 -167.585938 126.367188 -158.699219 112.050781 -141.667969 C 111.558594 -142.65625 110.816406 -143.644531 110.324219 -144.382812 C 96.996094 -164.871094 68.859375 -163.636719 52.570312 -147.59375 C 35.046875 -130.5625 26.160156 -102.179688 20.980469 -78.980469 C 15.550781 -53.558594 13.820312 -27.394531 12.339844 -1.726562 C 10.859375 22.214844 47.882812 21.964844 49.363281 -1.726562 C 51.089844 -32.824219 53.0625 -64.417969 63.675781 -93.789062 C 66.144531 -100.453125 68.859375 -106.867188 72.5625 -112.792969 C 73.796875 -114.765625 77.003906 -121.429688 79.964844 -122.171875 C 79.964844 -122.417969 80.214844 -122.417969 80.214844 -122.417969 C 80.214844 -122.171875 80.214844 -121.675781 80.707031 -121.183594 C 83.667969 -117.234375 82.679688 -105.632812 82.929688 -100.945312 C 83.175781 -92.058594 82.679688 -83.175781 81.695312 -74.042969 C 79.71875 -53.558594 114.765625 -48.621094 118.222656 -69.355469 C 120.195312 -82.433594 124.390625 -94.773438 131.550781 -106.128906 C 134.019531 -109.832031 139.449219 -114.273438 142.65625 -118.222656 C 143.148438 -114.273438 145.125 -110.324219 145.617188 -106.621094 C 151.542969 -73.796875 145.125 -37.515625 141.914062 -4.9375 C 139.449219 18.757812 176.46875 18.757812 178.9375 -4.9375 C 181.652344 -32.332031 184.613281 -60.222656 184.121094 -88.109375 Z M 184.121094 -88.109375 "/></g></g></g><g fill="#9888c6" fill-opacity="1"><g transform="translate(333.072421, 564.095951)"><g><path d="M 127.601562 -107.855469 C 126.859375 -129.328125 126.367188 -185.601562 89.839844 -170.050781 C 66.144531 -159.933594 48.128906 -129.082031 38.007812 -106.621094 C 24.679688 -76.757812 18.265625 -44.917969 12.585938 -12.585938 C 8.390625 10.613281 43.933594 20.730469 48.128906 -2.714844 C 50.347656 -15.300781 52.570312 -27.644531 55.285156 -39.984375 L 92.308594 -38.75 C 92.800781 -28.875 93.046875 -19.003906 93.292969 -9.132812 C 93.789062 14.5625 130.808594 14.5625 130.070312 -9.132812 C 129.328125 -41.957031 128.835938 -75.03125 127.601562 -107.855469 Z M 65.652344 -76.757812 C 66.144531 -77.992188 66.640625 -79.472656 67.132812 -80.707031 C 71.328125 -91.8125 76.757812 -102.425781 83.175781 -112.296875 C 85.394531 -115.753906 87.863281 -118.714844 90.332031 -121.925781 C 90.578125 -116.988281 90.332031 -112.050781 90.578125 -107.855469 C 91.074219 -97.242188 91.320312 -86.382812 91.566406 -75.769531 C 82.929688 -76.015625 74.289062 -76.265625 65.652344 -76.757812 Z M 65.652344 -76.757812 "/></g></g></g><g fill="#9888c6" fill-opacity="1"><g transform="translate(457.455416, 564.095951)"><g><path d="M 112.296875 -169.558594 C 84.902344 -173.015625 57.507812 -173.507812 29.863281 -170.546875 C 6.417969 -168.324219 6.171875 -131.304688 29.863281 -133.769531 C 37.269531 -134.511719 44.425781 -134.757812 51.582031 -135.25 C 49.363281 -98.972656 47.386719 -62.9375 45.167969 -26.902344 C 43.683594 -2.960938 80.707031 -3.207031 82.1875 -26.902344 C 84.410156 -62.691406 86.382812 -98.722656 88.605469 -134.757812 C 96.503906 -134.265625 104.402344 -133.523438 112.296875 -132.535156 C 135.992188 -129.328125 135.746094 -166.351562 112.296875 -169.558594 Z M 112.296875 -169.558594 "/></g></g></g><g fill="#9888c6" fill-opacity="1"><g transform="translate(581.591633, 564.095951)"><g><path d="M 102.917969 -52.078125 C 85.890625 -52.570312 68.859375 -52.078125 52.078125 -50.347656 C 53.3125 -59.726562 54.792969 -69.105469 56.027344 -78.734375 C 64.417969 -78.734375 72.808594 -78.238281 81.199219 -77.5 C 91.320312 -76.511719 99.710938 -86.628906 99.710938 -96.007812 C 99.710938 -106.867188 91.320312 -113.53125 81.199219 -114.519531 C 74.785156 -115.011719 68.367188 -115.507812 61.703125 -115.507812 C 63.183594 -125.132812 64.910156 -134.757812 66.390625 -144.136719 C 78.980469 -144.136719 91.320312 -143.890625 103.90625 -142.902344 C 127.601562 -141.421875 127.601562 -178.445312 103.90625 -179.925781 C 86.136719 -181.160156 68.121094 -181.40625 50.347656 -180.910156 C 43.4375 -180.664062 38.503906 -177.210938 35.539062 -172.765625 C 34.304688 -170.792969 33.320312 -168.324219 32.824219 -165.363281 C 24.679688 -120.195312 18.015625 -74.785156 12.339844 -29.125 C 10.613281 -16.042969 25.421875 -9.625 35.789062 -11.351562 C 58 -14.808594 80.460938 -15.796875 102.917969 -15.054688 C 126.613281 -14.066406 126.613281 -51.089844 102.917969 -52.078125 Z M 102.917969 -52.078125 "/></g></g></g></svg>
